<svg id="draw.id" xmlns:v="http://vecta.io" overflow="visible" v:ver="3" v:layers="{&quot;default&quot;:{&quot;name&quot;:&quot;По умолчанию&quot;,&quot;print&quot;:1,&quot;display&quot;:1,&quot;publish&quot;:1}}" x="500.5" y="500.5" v:stencils="{&quot;0&quot;:{&quot;id&quot;:&quot;stencil_25&quot;,&quot;expand&quot;:1,&quot;show_name&quot;:1},&quot;1&quot;:{&quot;id&quot;:&quot;stencil_65&quot;,&quot;expand&quot;:1,&quot;show_name&quot;:1}}" xmlns="http://www.w3.org/2000/svg" xmlns:xlink="http://www.w3.org/1999/xlink"><style xmlns="http://www.w3.org/1999/xhtml"><![CDATA[#draw\.id{stroke:#000;stroke-linecap:round;stroke-linejoin:round;fill:#fff;fill-rule:evenodd;font-family:Roboto;font-size:14px;text-anchor:middle}#draw\.id text{paint-order:stroke;white-space:pre}#draw\.id .Text\.cls{stroke:none}]]></style><defs><style type="text/css">@import url("https://fonts.googleapis.com/css?family=Roboto+Condensed:400,400i,700,700i"); @import url("https://fonts.googleapis.com/css?family=Roboto:400,400i,700,700i"); @import url("https://fonts.googleapis.com/css?family=Cousine:400,400i,700,700i"); @import url("https://fonts.googleapis.com/css?family=Anonymous+Pro:400,400i,700,700i"); @import url("https://fonts.googleapis.com/css?family=Lato:400,400i,700,700i"); @import url("https://fonts.googleapis.com/css?family=Open+Sans:400,400i,700,700i");</style></defs><title xmlns="http://www.w3.org/1999/xhtml">Без названия</title><desc xmlns="http://www.w3.org/1999/xhtml"></desc><svg id="kyblpdpw3d" width="2245.0394325256348" height="1587.4016189575195" overflow="visible" viewBox="0 0 1122.5197162628174 793.7008094787598" v:setup="{&quot;paper&quot;:&quot;A4&quot;,&quot;unit&quot;:&quot;px&quot;,&quot;scale&quot;:{&quot;from&quot;:1,&quot;to&quot;:1},&quot;width&quot;:1122.5197162628174,&quot;height&quot;:793.7008094787598}"><g id="kyblqm1t1hp" transform="translate(80 80)" class=""><svg width="550" height="280" version="1.1" viewBox="0 0 55 28" class="Ignore.cls" x="0" y="0" stroke="initial" stroke-linecap="initial" stroke-linejoin="initial" fill="initial" text-anchor="initial" fill-rule="initial"><defs><marker id="kyblqm0w1h0" overflow="visible" orient="auto"><path transform="scale(.4)" d="m5.77 0-8.65 5v-10z" stroke="#000"/></marker></defs><g><g id="kyblqm0w1h1"><g id="kyblqm0w1h2"><g id="kyblqm0w1h3"><g id="kyblqm0w1h4"><g id="kyblqm0w1h5"><g id="kyblqm0w1h6" class=""><path id="kyblqm0w1h7" d="m7 1h2v2h-2z" fill="#cff" stroke="#000" stroke-width=".06"/><use transform="translate(2)" xlink:href="#kyblqm0w1h7"/></g><use transform="translate(4)" xlink:href="#kyblqm0w1h6"/></g><use transform="translate(0,2)" xlink:href="#kyblqm0w1h5"/></g><use transform="translate(0,4)" xlink:href="#kyblqm0w1h4"/><path d="m7 9 8-8" fill="#cff" stroke="#000" stroke-dasharray="0.528, 0.208" stroke-width=".08"/></g><use transform="translate(11)" xlink:href="#kyblqm0w1h3"/></g><use transform="translate(22)" xlink:href="#kyblqm0w1h2"/></g><use transform="translate(0,18)" xlink:href="#kyblqm0w1h1"/><g id="kyblqm0w1h8"><use transform="translate(-6,9)" xlink:href="#kyblqm0w1h3"/><use transform="translate(3,9)" xlink:href="#kyblqm0w1h3"/></g><use transform="translate(18)" xlink:href="#kyblqm0w1h8"/><use transform="translate(36)" xlink:href="#kyblqm0w1h8"/></g><path id="kyblqm0w1h9" d="m24 7h2v2h-2z" fill="#fc9" stroke="#000" stroke-width=".06"/><use transform="translate(18,18)" xlink:href="#kyblqm0w1h9"/><g id="kyblqm0w1ha"><use transform="translate(11)" xlink:href="#kyblqm0w1h9"/><use transform="translate(11,-2)" xlink:href="#kyblqm0w1h9"/></g><use transform="rotate(-90,41.5,2.5)" xlink:href="#kyblqm0w1ha"/><use transform="rotate(-90,44.5,8.5)" xlink:href="#kyblqm0w1ha"/><use transform="rotate(-90,43.5,7.5)" xlink:href="#kyblqm0w1ha"/><g id="kyblqm0w1hb"><use transform="rotate(-90,26.5,26.5)" xlink:href="#kyblqm0w1ha"/><use transform="translate(-21,9)" xlink:href="#kyblqm0w1h9"/></g><use transform="rotate(90,17,26)" xlink:href="#kyblqm0w1hb"/><g id="kyblqm0w1hc"><use transform="translate(27)" xlink:href="#kyblqm0w1hb"/><use transform="translate(10,7)" xlink:href="#kyblqm0w1h9"/></g><use transform="matrix(0,1,1,0,36,-18)" xlink:href="#kyblqm0w1hc"/><use transform="translate(-10,9)" xlink:href="#kyblqm0w1h9"/><use transform="translate(-19,9)" xlink:href="#kyblqm0w1ha"/><use transform="translate(-10,9)" xlink:href="#kyblqm0w1hc"/><use transform="translate(0,14)" xlink:href="#kyblqm0w1h9"/><g id="kyblqm0w1hd"><use transform="rotate(-90,44,16)" xlink:href="#kyblqm0w1ha"/><use transform="translate(28,9)" xlink:href="#kyblqm0w1hb"/></g><use transform="matrix(0,1,1,0,-12,-10)" xlink:href="#kyblqm0w1hd"/><use transform="matrix(0,1,1,0,21,-10)" xlink:href="#kyblqm0w1hd"/><g stroke="#000" stroke-width=".16" marker-end="url(#kyblqm0w1h0)" marker-mid="url(#kyblqm0w1h0)"><path d="m7 9h2 2 2 2"/><path d="m15 9v-2-2-2-2"/><path d="m18 9h2 2 2"/><path d="m24 9v-2"/><path d="m24 7h2"/><path d="m26 7v-2-2-2"/><path d="m29 9h2 2 2"/><path d="m35 9v-2-2"/><path d="m35 5h2"/><path d="m37 5v-2-2"/><path d="m40 9h2 2"/><path d="m44 7h2 2"/><path d="m44 9v-2"/><path d="m48 7v-2-2-2"/><path d="m1 18h2"/><path d="m3 16h2 2 2"/><path d="m3 18v-2"/><path d="m9 16v-2-2-2"/><path d="m10 18h2 2"/><path d="m14 16h2"/><path d="m16 14h2"/><path d="m14 18v-2"/><path d="m16 16v-2"/><path d="m18 14v-2-2"/><path d="m19 18h2 2 2"/><path d="m25 12h2"/><path d="m25 18v-2-2-2"/><path d="m27 12v-2"/><path d="m28 18h2"/><path d="m30 16h2 2"/><path d="m34 14h2"/><path d="m30 18v-2"/><path d="m34 16v-2"/><path d="m36 14v-2-2"/><path d="m37 18h2 2"/><path d="m41 14h2 2"/><path d="m41 18v-2-2"/><path d="m45 14v-2-2"/><path d="m46 18h2 2"/><path d="m50 16h2"/><path d="m52 12h2"/><path d="m50 18v-2"/><path d="m52 16v-2-2"/><path d="m54 12v-2"/><path d="m7 27h2 2"/><path d="m11 23h2"/><path d="m13 21h2"/><path d="m11 27v-2-2"/><path d="m13 23v-2"/><path d="m15 21v-2"/><path d="m18 27h2"/><path d="m20 25h2 2"/><path d="m24 21h2"/><path d="m20 27v-2"/><path d="m24 25v-2-2"/><path d="m26 21v-2"/><path d="m29 27h2"/><path d="m31 25h2"/><path d="m33 23h2 2"/><path d="m31 27v-2"/><path d="m33 25v-2"/><path d="m37 23v-2-2"/><path d="m40 27h2"/><path d="m42 25h2"/><path d="m44 23h2"/><path d="m46 21h2"/><path d="m42 27v-2"/><path d="m44 25v-2"/><path d="m46 23v-2"/><path d="m48 21v-2"/></g></svg><rect x="0" y="0" width="550" height="280" class="Rim.cls" stroke="none" fill="none"/></g><g id="kyblsy5d29p" transform="translate(125 95)" class=""><rect class="" x="0" y="0" width="15" height="15" fill="none" stroke="none"/><g transform="translate(0 0)" class="Text.cls"><rect x="0" y="0" width="15" height="15" fill="none" stroke="none"/><text fill="#000000" fill-opacity="1" font-size="11px"><tspan x="7.5" y="11.129999999999999"/></text></g></g><g id="kybltfd42aa" transform="translate(135 90)" class=""><rect class="" x="0" y="0" width="10" height="20" fill="none" stroke="none"/><g transform="translate(0 0)" class="Text.cls"><rect x="0" y="0" width="10" height="20" fill="none" stroke="none"/><text fill="#000000" fill-opacity="1" font-size="11px"><tspan x="5" y="13.629999999999999">1</tspan></text></g></g><g id="kybltyu12an" transform="translate(245 90)" class=""><rect class="" x="0" y="0" width="10" height="20" fill="none" stroke="none"/><g transform="translate(0 0)" class="Text.cls"><rect x="0" y="0" width="10" height="20" fill="none" stroke="none"/><text fill="#000000" fill-opacity="1" font-size="11px" class=""><tspan x="5" y="13.629999999999999">2</tspan></text></g></g><g id="kyblu93w2ap" transform="translate(355 90)" class=""><rect class="" x="0" y="0" width="10" height="20" fill="none" stroke="none"/><g transform="translate(0 0)" class="Text.cls"><rect x="0" y="0" width="10" height="20" fill="none" stroke="none"/><text fill="#000000" fill-opacity="1" font-size="11px" class=""><tspan x="5" y="13.629999999999999">3</tspan></text></g></g><g id="kyblugu52ar" transform="translate(465 90)" class=""><rect class="" x="0" y="0" width="10" height="20" fill="none" stroke="none"/><g transform="translate(0 0)" class="Text.cls"><rect x="0" y="0" width="10" height="20" fill="none" stroke="none"/><text fill="#000000" fill-opacity="1" font-size="11px" class=""><tspan x="5" y="13.629999999999999">4</tspan></text></g></g><g id="kybluobc2at" transform="translate(75 180)" class=""><rect class="" x="0" y="0" width="10" height="20" fill="none" stroke="none"/><g transform="translate(0 0)" class="Text.cls"><rect x="0" y="0" width="10" height="20" fill="none" stroke="none"/><text fill="#000000" fill-opacity="1" font-size="11px" class=""><tspan x="5" y="13.629999999999999">5</tspan></text></g></g><g id="kybluwst2av" transform="translate(170 180)" class=""><rect class="" x="0" y="0" width="10" height="20" fill="none" stroke="none"/><g transform="translate(0 0)" class="Text.cls"><rect x="0" y="0" width="10" height="20" fill="none" stroke="none"/><text fill="#000000" fill-opacity="1" font-size="11px" class=""><tspan x="5" y="13.629999999999999">6</tspan></text></g></g><g id="kyblv2jx2ax" transform="translate(260 180)" class=""><rect class="" x="0" y="0" width="10" height="20" fill="none" stroke="none"/><g transform="translate(0 0)" class="Text.cls"><rect x="0" y="0" width="10" height="20" fill="none" stroke="none"/><text fill="#000000" fill-opacity="1" font-size="11px" class=""><tspan x="5" y="13.629999999999999">7</tspan></text></g></g><g id="kyblv7xz2az" transform="translate(350 180)" class=""><rect class="" x="0" y="0" width="10" height="20" fill="none" stroke="none"/><g transform="translate(0 0)" class="Text.cls"><rect x="0" y="0" width="10" height="20" fill="none" stroke="none"/><text fill="#000000" fill-opacity="1" font-size="11px" class=""><tspan x="5" y="13.629999999999999">8</tspan></text></g></g><g id="kyblvdbp2b1" transform="translate(440 180)" class=""><rect class="" x="0" y="0" width="10" height="20" fill="none" stroke="none"/><g transform="translate(0 0)" class="Text.cls"><rect x="0" y="0" width="10" height="20" fill="none" stroke="none"/><text fill="#000000" fill-opacity="1" font-size="11px" class=""><tspan x="5" y="13.629999999999999">9</tspan></text></g></g><g id="kyblvi1d2b3" transform="translate(530 180)" class=""><rect class="" x="0" y="0" width="10" height="20" fill="none" stroke="none"/><g transform="translate(0 0)" class="Text.cls"><rect x="0" y="0" width="10" height="20" fill="none" stroke="none"/><text fill="#000000" fill-opacity="1" font-size="8px" class=""><tspan x="2.75" y="12.64">1</tspan><tspan x="7.25" y="12.64">0</tspan></text></g></g><g id="kyblvwz72b7" transform="translate(130 270)" class=""><rect class="" x="0" y="0" width="20" height="20" fill="none" stroke="none"/><g transform="translate(0 0)" class="Text.cls"><rect x="0" y="0" width="20" height="20" fill="none" stroke="none"/><text fill="#000000" fill-opacity="1" font-size="11px" class=""><tspan x="10" y="13.629999999999999">11</tspan></text></g></g><g id="kyblw8942bd" transform="translate(240 270)" class=""><rect class="" x="0" y="0" width="20" height="20" fill="none" stroke="none"/><g transform="translate(0 0)" class="Text.cls"><rect x="0" y="0" width="20" height="20" fill="none" stroke="none"/><text fill="#000000" fill-opacity="1" font-size="11px" class=""><tspan x="10" y="13.629999999999999">12</tspan></text></g></g><g id="kyblwep82bf" transform="translate(350 270)" class=""><rect class="" x="0" y="0" width="20" height="20" fill="none" stroke="none"/><g transform="translate(0 0)" class="Text.cls"><rect x="0" y="0" width="20" height="20" fill="none" stroke="none"/><text fill="#000000" fill-opacity="1" font-size="11px" class=""><tspan x="10" y="13.629999999999999">13</tspan></text></g></g><g id="kyblwkks2bh" transform="translate(460 270)" class=""><rect class="" x="0" y="0" width="20" height="20" fill="none" stroke="none"/><g transform="translate(0 0)" class="Text.cls"><rect x="0" y="0" width="20" height="20" fill="none" stroke="none"/><text fill="#000000" fill-opacity="1" font-size="11px" class=""><tspan x="10" y="13.629999999999999">14</tspan></text></g></g></svg></svg>