<svg xmlns="http://www.w3.org/2000/svg" xmlns:xlink="http://www.w3.org/1999/xlink" xmlns:v="http://vecta.io" width="1123" height="794" viewBox="0 0 1123 794" v:json="{&quot;_titleBlocks_dataRevision&quot;:&quot;&quot;,&quot;_titleBlocks_dataCompany&quot;:&quot;&quot;,&quot;_titleBlocks_dataProject&quot;:&quot;&quot;,&quot;_titleBlocks_dataClient&quot;:&quot;&quot;,&quot;_titleBlocks_dataDrawingNo&quot;:&quot;&quot;}"><style><![CDATA[svg{stroke:#000;stroke-linecap:round;stroke-linejoin:round;fill:#fff;fill-rule:evenodd;font-family:Roboto;font-size:14px;text-anchor:middle}svg text{paint-order:stroke;white-space:pre}svg .Text\.cls{stroke:none}]]></style><defs><style>@import url("https://fonts.googleapis.com/css?family=Roboto:400,400i,700,700i");</style><g id="thin.end"><path d="M 0 0 L 3 10 L -3 10 Z" stroke="none"/></g><g id="thick.end"><path d="M 0 0 L 4 5 L -4 5 Z" stroke="none"/></g></defs><g transform="translate(99.5 149.5)"><rect fill="#ccffff" height="50" width="50" x="0" y="0"/><g class="Text.cls"><rect x="0" y="0" width="50" height="50" fill="none" stroke="none"/><text fill="#000000" fill-opacity="1"><tspan x="25" y="29.62">z</tspan></text></g></g><g transform="translate(199.5 149.5)"><rect fill="#ccffff" height="50" width="50" x="0" y="0"/><g class="Text.cls"><rect x="0" y="0" width="50" height="50" fill="none" stroke="none"/><text fill="#000000" fill-opacity="1"><tspan x="25" y="29.62">n</tspan></text></g></g><g transform="translate(299.5 149.5)"><rect fill="#ccffff" height="50" width="50" x="0" y="0"/><g class="Text.cls"><rect x="0" y="0" width="50" height="50" fill="none" stroke="none"/><text fill="#000000" fill-opacity="1"><tspan x="25" y="29.62">n</tspan></text></g></g><g transform="translate(149.5 249.5)"><path d="M 0 0 L 25 25 L 50 0 Z" fill="#ccffd5"/><g class="Text.cls"><rect x="0" y="0" width="50" height="25" fill="none" stroke="none"/><text fill="#000000" fill-opacity="1"><tspan x="25" y="17.12">^</tspan></text></g></g><g transform="translate(399.5 149.5)"><rect fill="#ccffff" height="50" width="50" x="0" y="0"/><g class="Text.cls"><rect x="0" y="0" width="50" height="50" fill="none" stroke="none"/><text fill="#000000" fill-opacity="1"><tspan x="25" y="29.62">pv0</tspan></text></g></g><g transform="translate(304.5 244.5)"><ellipse cx="20" cy="20" fill="#ccffd5" rx="20" ry="20"/><g class="Text.cls"><rect x="0" y="0" width="40" height="40" fill="none" stroke="none"/><text fill="#000000" fill-opacity="1"><tspan x="20" y="24.62">!</tspan></text></g></g><g transform="translate(272 412)"><path d="M 0 0 L 25 25 L 50 0 Z" fill="#ccffd5"/><g class="Text.cls"><rect x="0" y="0" width="50" height="25" fill="none" stroke="none"/><text fill="#000000" fill-opacity="1"><tspan x="25" y="17.12">^</tspan></text></g></g><g transform="translate(138.7857 199.5)"><path fill="none" d="M 1e-13 1e-13 L 23.8581 41.7517" stroke="#000"/><use class="EndArrow.cls" x="28.5714" y="50" transform="scale(1) rotate(150.2551 28.5714 50)" fill="#000" xlink:href="#thin.end"/></g><g transform="translate(181.6429 199.5)"><path fill="none" d="M 28.5714 0 L 4.7133 41.7517" stroke="#000"/><use class="EndArrow.cls" x="0" y="50" transform="scale(1) rotate(209.7449 0 50)" fill="#000" xlink:href="#thin.end"/></g><g transform="translate(324.5 199.5)"><path fill="none" d="M 1e-13 1e-13 L 0 35.5" stroke="#000"/><use class="EndArrow.cls" x="0" y="45" transform="scale(1) rotate(180 0 45)" fill="#000" xlink:href="#thin.end"/></g><g transform="translate(303.375 199.5)"><path fill="none" d="M 108.375 0 L 2.0445 208.4912" stroke="#000"/><use class="EndArrow.cls" x="0" y="212.5" transform="scale(1) rotate(207.0216 0 212.5)" fill="#000" xlink:href="#thick.end"/></g><g transform="translate(237 339.5)"><path d="M 0 0 L 25 25 L 50 0 Z" fill="#ccffd5"/><g class="Text.cls"><rect x="0" y="0" width="50" height="25" fill="none" stroke="none"/><text fill="#000000" fill-opacity="1"><tspan x="25" y="17.12">/</tspan></text></g></g><g transform="translate(266.0697 360.4303)"><path fill="none" d="M 1e-13 1e-13 L 20.7657 43.0145" stroke="#000"/><use class="EndArrow.cls" x="24.8958" y="51.5697" transform="scale(1) rotate(154.2306 24.8958 51.5697)" fill="#000" xlink:href="#thin.end"/></g><g transform="translate(180.662 268.338)"><path fill="none" d="M 1e-13 1e-13 L 62.5631 64.3506" stroke="#000"/><use class="EndArrow.cls" x="69.1853" y="71.162" transform="scale(1) rotate(135.8069 69.1853 71.162)" fill="#000" xlink:href="#thin.end"/></g><g transform="translate(270.9286 280.7894)"><path fill="none" d="M 41.9361 0 L 5.5218 50.9801" stroke="#000"/><use class="EndArrow.cls" x="0" y="58.7106" transform="scale(1) rotate(215.5377 0 58.7106)" fill="#000" xlink:href="#thin.end"/></g><g transform="translate(251 475)"><rect x="0" y="0" width="92.5" height="27.5" fill="none" stroke="none"/><g class="Text.cls"><rect x="0" y="0" width="92.5" height="27.5" fill="none" stroke="none"/><text fill="#000000" fill-opacity="1"><tspan x="46.25" y="18.37">Result</tspan></text></g></g><g transform="translate(297.0484 436.9515)"><path fill="none" d="M 1e-13 1e-13 L 0.1111 28.5486" stroke="#000"/><use class="EndArrow.cls" x="0.1481" y="38.0485" transform="scale(1) rotate(179.777 0.1481 38.0485)" fill="#000" xlink:href="#thin.end"/></g><g transform="translate(399.5 79.5)"><rect x="0" y="0" width="50" height="50" fill="none" stroke="none"/><g transform="translate(0 -30)" class="Text.cls"><rect x="0" y="0" width="50" height="50" fill="none" stroke="none"/><text fill="#000000" fill-opacity="1"><tspan x="25" y="12.82">Initial </tspan><tspan x="25" y="29.62">value</tspan><tspan x="25" y="46.42"> 0</tspan></text></g></g><g transform="translate(424.5 104.5)"><path fill="none" d="M 1e-13 1e-13 L 0 35.5" stroke="#000"/><use class="EndArrow.cls" x="0" y="45" transform="scale(1) rotate(180 0 45)" fill="#000" xlink:href="#thin.end"/></g><g transform="translate(297 159.5)"><path fill="none" d="M 0 295 L 202.5 295 L 202.5 0 L 162 0" stroke="#000"/><use class="EndArrow.cls" x="152.5" y="0" transform="scale(1) rotate(270 152.5 0)" fill="#000" xlink:href="#thin.end"/></g><g transform="translate(339.5 429.5)"><rect x="0" y="0" width="140" height="20" fill="none" stroke="none"/><g transform="translate(5 -10)" class="Text.cls"><rect x="0" y="0" width="140" height="20" fill="none" stroke="none"/><text fill="#000000" fill-opacity="1"><tspan x="70" y="6.22">next iteration with </tspan><tspan x="70" y="23.02">decremention of n</tspan></text></g></g><g transform="translate(94.5 39.5)"><rect x="0" y="0" width="130" height="45" fill="none" stroke="none"/><g transform="translate(5 10)" class="Text.cls"><rect x="0" y="0" width="130" height="35" fill="none" stroke="none"/><text fill="#000000" fill-opacity="1" text-anchor="start"><tspan x="2" y="22.12">For exp(z)</tspan></text></g></g><g transform="translate(99.5 84.5)"><rect x="0" y="0" width="170" height="40" fill="none" stroke="none"/><g transform="translate(0 15)" class="Text.cls"><rect x="0" y="0" width="250" height="40" fill="none" stroke="none"/><text fill="#000000" fill-opacity="1" text-anchor="start"><tspan x="2" y="24.62">Bracket sequence: ((()())(()))()</tspan></text></g></g><rect fill="#ccffff" height="50" width="50" x="0" y="0" transform="translate(599.5 49.5)"/><path d="M 0 0 L 25 25 L 50 0 Z" fill="#ccffd5" transform="translate(599.5 124.5)"/><ellipse cx="20" cy="20" fill="#ccffd5" rx="20" ry="20" transform="translate(604.5 169.5)"/><g transform="translate(669.5001 59.5)"><rect x="0" y="0" width="145" height="35" fill="none" stroke="none"/><g transform="translate(0 -10)" class="Text.cls"><rect x="0" y="0" width="194.9999" height="45" fill="none" stroke="none"/><text fill="#000000" fill-opacity="1" text-anchor="start"><tspan x="2" y="18.72">Constant or argument or </tspan><tspan x="2" y="35.52">previous value of iteration</tspan></text></g></g><g transform="translate(669.5001 119.5)"><rect x="0" y="0" width="145" height="30" fill="none" stroke="none"/><g class="Text.cls"><rect x="0" y="0" width="249.9999" height="30" fill="none" stroke="none"/><text fill="#000000" fill-opacity="1" text-anchor="start"><tspan x="2" y="19.62">Operator (has two input arguments)</tspan></text></g></g><g transform="translate(679.5001 174.5)"><rect x="0" y="0" width="115" height="35" fill="none" stroke="none"/><g transform="translate(-10 -5)" class="Text.cls"><rect x="0" y="0" width="224.9999" height="35" fill="none" stroke="none"/><text fill="#000000" fill-opacity="1" text-anchor="start"><tspan x="2" y="22.12">Function (has one input argument)</tspan></text></g></g></svg>